<svg xmlns="http://www.w3.org/2000/svg" viewBox="0 0 1200 800" role="img" aria-label="Veicolo commerciale stilizzato">
  <defs>
    <linearGradient id="bg" x1="0" y1="0" x2="1" y2="1">
      <stop offset="0" stop-color="#15161b"/>
      <stop offset="1" stop-color="#07080b"/>
    </linearGradient>
    <radialGradient id="glow" cx="20%" cy="80%" r="75%">
      <stop offset="0" stop-color="#f3262f" stop-opacity=".52"/>
      <stop offset="1" stop-color="#f3262f" stop-opacity="0"/>
    </radialGradient>
    <filter id="shadow" x="-20%" y="-20%" width="140%" height="140%">
      <feDropShadow dx="0" dy="24" stdDeviation="22" flood-color="#000" flood-opacity=".55"/>
    </filter>
  </defs>
  <rect width="1200" height="800" fill="url(#bg)"/>
  <rect width="1200" height="800" fill="url(#glow)"/>
  <g opacity=".12" stroke="#fff" fill="none">
    <path d="M0 650 1200 520M0 715 1200 585M120 800 760 0M330 800 900 0M560 800 1040 0"/>
    <path d="M60 150h140v250H60zM230 90h170v310H230zM430 190h120v210H430zM580 65h200v335H580zM820 130h150v270H820zM1000 210h110v190h-110z"/>
  </g>
  <g transform="translate(175 228)" filter="url(#shadow)">
    <path d="M75 98h515c42 0 79 25 96 63l80 181h67c35 0 62 28 62 62v80H43V166c0-38 14-68 32-68Z" fill="#f7f7f5"/>
    <path d="M595 119h43c23 0 44 14 54 35l66 149H595Z" fill="#cfd2d5"/>
    <path d="M125 143h398v166H125z" fill="#e4e6e7"/>
    <path d="M81 331h764" stroke="#191a1e" stroke-width="13"/>
    <path d="M570 100v370M112 108v361" stroke="#b6b8bc" stroke-width="7"/>
    <rect x="106" y="292" width="442" height="18" rx="9" fill="#f3262f"/>
    <circle cx="218" cy="486" r="78" fill="#121318"/>
    <circle cx="218" cy="486" r="40" fill="#8c8f94"/>
    <circle cx="731" cy="486" r="78" fill="#121318"/>
    <circle cx="731" cy="486" r="40" fill="#8c8f94"/>
    <rect x="770" y="361" width="85" height="33" rx="8" fill="#f3262f"/>
    <rect x="63" y="360" width="48" height="58" rx="10" fill="#f3262f"/>
  </g>
  <path d="M80 92h330" stroke="#f3262f" stroke-width="5"/>
  <path d="M835 708h285" stroke="#f3262f" stroke-width="5"/>
</svg>
